# xmcd
# Copyright (C) 1995-1998 Ti Kan
#
# Track frame offsets:
#       150
#       14606
#       29868
#
# Disc length: 584 seconds
#
# Revision: 0
# Processed by: cddbd v1.5.2PL0 Copyright (c) Steve Scherf et al.
# Submitted via: CD-Transfer v1.0
#
DISCID=24024603
DTITLE=Gentlemen Mit Conny - 
DYEAR=1900
DGENRE=
TTITLE0=Jeder Traum
TTITLE1=Immer Wieder Du
TTITLE2=Ich Bin Vierzig
EXTD=
EXTT0=
EXTT1=
EXTT2=
PLAYORDER=
